<svg xmlns="http://www.w3.org/2000/svg" viewBox="0 0 180 180" fill="none" shape-rendering="auto"><metadata xmlns:rdf="http://www.w3.org/1999/02/22-rdf-syntax-ns#" xmlns:xsi="http://www.w3.org/2001/XMLSchema-instance" xmlns:dc="http://purl.org/dc/elements/1.1/" xmlns:dcterms="http://purl.org/dc/terms/"><rdf:RDF><rdf:Description><dc:title>Bottts</dc:title><dc:creator>Pablo Stanley</dc:creator><dc:source xsi:type="dcterms:URI">https://bottts.com/</dc:source><dcterms:license xsi:type="dcterms:URI">https://bottts.com/</dcterms:license><dc:rights>Remix of „Bottts” (https://bottts.com/) by „Pablo Stanley”, licensed under „Free for personal and commercial use” (https://bottts.com/)</dc:rights></rdf:Description></rdf:RDF></metadata><mask id="viewboxMask"><rect width="180" height="180" rx="32.4" ry="32.4" x="0" y="0" fill="#fff" /></mask><g mask="url(#viewboxMask)"><rect fill="#fff3b0" width="180" height="180" x="0" y="0" /><g transform="translate(9 9) scale(0.9)"><g transform="translate(0 66)"><mask id="sidesSquareAssymetric-a" style="mask-type:luminance" maskUnits="userSpaceOnUse" x="10" y="8" width="165" height="60"><g fill="#fff"><rect x="10" y="31" width="36" height="30" rx="4"/><rect x="20" y="15" width="26" height="30" rx="4"/><rect x="139" y="23" width="36" height="30" rx="4"/><rect x="134" y="8" width="36" height="60" rx="4"/></g></mask><g mask="url(#sidesSquareAssymetric-a)"><path d="M0 0h180v76H0V0Z" fill="#7cb342"/><path d="M0 0h180v76H0V0Z" fill="#fff" fill-opacity=".3"/><path fill="#000" fill-opacity=".1" d="M0 47h180v29H0z"/><circle cx="161" cy="20" r="5" fill="#fff" fill-opacity=".6"/><circle cx="161" cy="36" r="5" fill="#fff" fill-opacity=".6"/></g></g><g transform="translate(41)"><mask id="topHorns-a" style="mask-type:luminance" maskUnits="userSpaceOnUse" x="8" y="12" width="84" height="40"><g fill="#fff"><path d="M8 40h26v12H8z"/><path transform="matrix(-1 0 0 1 92 40)" d="M0 0h26v12H0z"/><path fill-rule="evenodd" clip-rule="evenodd" d="M16.52 13.74c0 7.84 5.39 20.71 13.72 27.04H11.36S7.84 22.66 13.43 14.1c.9-1.38 3.1-1.42 3.1-.36ZM84 14c.66 7.04-5.77 20.62-14 27h19s3.14-18.26-2-27c-1-1.7-3.14-1.45-3 0Z"/></g></mask><g mask="url(#topHorns-a)"><path d="M0 0h100v52H0V0Z" fill="#7cb342"/><path d="M0 0h100v52H0V0Z" fill="#fff" fill-opacity=".3"/><path fill="#000" fill-opacity=".4" d="M0 40h100v12H0z"/><path fill-rule="evenodd" clip-rule="evenodd" d="M15.46 13h16.1v27H20.83c-7.45-7.85-5.36-27-5.36-27ZM84.82 13h7.75v27H81.82c5.75-7.8 3-27 3-27Z" fill="#fff" fill-opacity=".4"/></g></g><g transform="translate(25 44)"><mask id="faceSquare02-a" style="mask-type:luminance" maskUnits="userSpaceOnUse" x="0" y="0" width="130" height="120"><path d="M0 12A12 12 0 0 1 12 0h106a12 12 0 0 1 12 12v70a38 38 0 0 1-38 38H38A38 38 0 0 1 0 82V12Z" fill="#fff"/></mask><g mask="url(#faceSquare02-a)"><path d="M-2-2h134v124H-2V-2Z" fill="#7cb342"/><g transform="translate(-1 -1)"><path d="M15 0h-4v18h4V0ZM23 0h-4v34h53.42a5 5 0 1 0 0-4H23V0Z" fill="#000" fill-opacity=".1"/><path d="M122 34.58a5 5 0 1 0-4 0V64h23v-4h-19V34.58Z" fill="#fff" fill-opacity=".2"/><path d="M114 46h-4v26h31v-4h-27V46ZM27 103.58a5 5 0 1 1 4 0V133H8v-4h19v-25.42Z" fill="#000" fill-opacity=".2"/></g></g></g><g transform="translate(52 124)"><path d="M27.05 8.44a2 2 0 1 1 3.9-.88C31.72 10.96 34.4 13 38 13c3.6 0 6.28-2.04 7.05-5.44a2 2 0 1 1 3.9.88C47.75 13.7 43.43 17 38 17s-9.76-3.3-10.95-8.56Z" fill="#000" fill-opacity=".6"/></g><g transform="translate(38 76)"><circle cx="28" cy="24" r="18" fill="#000" fill-opacity=".2"/><circle cx="74" cy="24" r="18" fill="#000" fill-opacity=".2"/><circle cx="28" cy="24" r="15" fill="#F1EEDA"/><circle cx="74" cy="24" r="15" fill="#F1EEDA"/><rect x="26" y="15" width="10" height="10" rx="2" fill="#000" fill-opacity=".8"/><rect x="74" y="15" width="10" height="10" rx="2" fill="#000" fill-opacity=".8"/></g></g></g></svg>